<?xml version="1.0" encoding="utf-8"?>
<svg width="180" height="53.333" version="1.1" viewBox="0 0 180 53.333" id="svg9" xmlns="http://www.w3.org/2000/svg" xmlns:bx="https://boxy-svg.com">
  <path d="m173.33 53.333h-166.66c-3.6666 0-6.6665-2.9999-6.6665-6.6665v-39.999c0-3.6666 2.9999-6.6665 6.6665-6.6665h166.66c3.6666 0 6.6665 2.9999 6.6665 6.6665v39.999c0 3.6666-2.9999 6.6665-6.6665 6.6665" fill="#000" stroke-width=".13333" id="path1" style=""/>
  <path d="m173.33 1e-3h-166.66c-3.6666 0-6.6665 2.9999-6.6665 6.6665v39.999c0 3.6666 2.9999 6.6665 6.6665 6.6665h166.66c3.6666 0 6.6665-2.9999 6.6665-6.6665v-39.999c0-3.6666-2.9999-6.6665-6.6665-6.6665zm0 1.0661c3.0879 0 5.5999 2.5125 5.5999 5.6004v39.999c0 3.0879-2.5119 5.6004-5.5999 5.6004h-166.66c-3.0879 0-5.5993-2.5125-5.5993-5.6004v-39.999c0-3.0879 2.5114-5.6004 5.5993-5.6004h166.66" fill="#a6a6a6" stroke-width=".13333" id="path2" style=""/>
  <defs id="defs8">
    <linearGradient id="outerGradient" x1="0" x2="0" y1="0" y2="1">
      <stop offset="0" stop-color="#6aaeb1" id="stop3"/>
      <stop offset="1" stop-color="#3f9899" id="stop4"/>
    </linearGradient>
    <linearGradient id="innerGradient" x1="0" x2="0" y1="0" y2="1">
      <stop offset="0" stop-color="#339399" id="stop5"/>
      <stop offset="1" stop-color="#00777a" id="stop6"/>
    </linearGradient>
    <linearGradient id="shapeGradient" x1="0" x2="0" y1="0" y2="1">
      <stop offset="0" stop-color="#78b3b0" id="stop7"/>
      <stop offset="1" stop-color="#5ca4a1" id="stop8"/>
    </linearGradient>
    <bx:export>
      <bx:file format="svg" href="#object-0"/>
    </bx:export>
  </defs>
  <g>
    <circle id="outerCircle" cx="27" cy="26.6665" r="20" fill="url(#outerGradient)" style=""/>
    <circle id="circle8" cx="27" cy="26.6665" r="19" fill="url(#innerGradient)" style=""/>
    <path d="M27,11.604424528301887 A5.262075471698112,5.262075471698112 0 0 1 31.390298742418572,13.96568714458088 A26.5,26.5 0 0 0 39.700812855419116,22.276201257581427 A5.262075471698112,5.262075471698112 0 0 1 42.06207547169811,26.6665 A5.262075471698112,5.262075471698112 0 0 1 39.700812855419116,31.05679874241857 A26.5,26.5 0 0 0 31.390298742418572,39.367312855419115 A5.262075471698112,5.262075471698112 0 0 1 27,41.72857547169811 A5.262075471698112,5.262075471698112 0 0 1 22.609701257581428,39.367312855419115 A26.5,26.5 0 0 0 14.29918714458088,31.05679874241857 A5.262075471698112,5.262075471698112 0 0 1 11.937924528301888,26.6665 A5.262075471698112,5.262075471698112 0 0 1 14.29918714458088,22.276201257581427 A26.5,26.5 0 0 0 22.609701257581428,13.96568714458088 A5.262075471698112,5.262075471698112 0 0 1 27,11.604424528301887" stroke="none" fill="url(#shapeGradient)" id="path8" style=""/>
    <path d="M27,18.212416666666662 A3.1040833333333335,3.1040833333333335 0 0 1 29.57186454252954,19.578441855070118 A15,15 0 0 0 34.08805814492988,24.09463545747046 A3.1040833333333335,3.1040833333333335 0 0 1 35.45408333333334,26.6665 A3.1040833333333335,3.1040833333333335 0 0 1 34.08805814492988,29.23836454252954 A15,15 0 0 0 29.57186454252954,33.75455814492988 A3.1040833333333335,3.1040833333333335 0 0 1 27,35.120583333333336 A3.1040833333333335,3.1040833333333335 0 0 1 24.42813545747046,33.75455814492988 A15,15 0 0 0 19.91194185507012,29.23836454252954 A3.1040833333333335,3.1040833333333335 0 0 1 18.545916666666663,26.6665 A3.1040833333333335,3.1040833333333335 0 0 1 19.91194185507012,24.09463545747046 A15,15 0 0 0 24.42813545747046,19.578441855070118 A3.1040833333333335,3.1040833333333335 0 0 1 27,18.212416666666662" stroke="none" fill="#fefcf6" id="path9" style=""/>
  </g>
  <g transform="matrix(1, 0, 0, 1, 0, 1.920295)" id="object-0">
    <path d="m63.193 13.042h-3.8895v0.96251h2.9146c-0.0792 0.78545-0.39172 1.4021-0.91878 1.85-0.52705 0.44799-1.2 0.67292-1.9958 0.67292-0.87291 0-1.6125-0.30413-2.2186-0.90824-0.59385-0.61665-0.89584-1.3792-0.89584-2.2979 0-0.91864 0.30199-1.6812 0.89584-2.2978 0.60612-0.60412 1.3457-0.90624 2.2186-0.90624 0.44799 0 0.87504 0.07707 1.2666 0.24586 0.39172 0.16866 0.70625 0.40412 0.95211 0.70625l0.73958-0.73958c-0.33546-0.38132-0.76038-0.67292-1.2876-0.88544-0.52705-0.21253-1.077-0.31453-1.6708-0.31453-1.1645 0-2.1519 0.40412-2.9582 1.2104-0.80625 0.80825-1.2104 1.8041-1.2104 2.9811 0 1.177 0.40412 2.175 1.2104 2.9813 0.80625 0.80611 1.7937 1.2104 2.9582 1.2104 1.2229 0 2.1979-0.39172 2.9479-1.1876 0.66038-0.66238 0.99784-1.5582 0.99784-2.679 0-0.1896-0.02293-0.39172-0.05627-0.60425zm1.5068-3.7332v8.0249h4.6852v-0.98544h-3.654v-2.5457h3.2958v-0.96251h-3.2958v-2.5437h3.654v-0.98758zm11.255 0.98758v-0.98758h-5.5145v0.98758h2.2417v7.0373h1.0312v-7.0373zm4.9925-0.98758h-1.0312v8.0249h1.0312zm6.8066 0.98758v-0.98758h-5.5144v0.98758h2.2415v7.0373h1.0312v-7.0373zm10.406 0.05626c-0.79585-0.81877-1.7708-1.2229-2.9354-1.2229-1.1666 0-2.1415 0.40412-2.9374 1.2104-0.79585 0.79585-1.1874 1.7937-1.1874 2.9811s0.39159 2.1854 1.1874 2.9813c0.79585 0.80611 1.7708 1.2104 2.9374 1.2104 1.1541 0 2.1395-0.40426 2.9354-1.2104 0.79585-0.79585 1.1874-1.7938 1.1874-2.9813 0-1.177-0.39159-2.1729-1.1874-2.9686zm-5.1332 0.67078c0.59372-0.60412 1.3229-0.90624 2.1978-0.90624 0.87291 0 1.6021 0.30213 2.1854 0.90624 0.59372 0.59372 0.88531 1.3686 0.88531 2.2978 0 0.93131-0.29159 1.7041-0.88531 2.2979-0.58332 0.60412-1.3125 0.90824-2.1854 0.90824-0.87491 0-1.6041-0.30413-2.1978-0.90824-0.58132-0.60625-0.87291-1.3666-0.87291-2.2979 0-0.92918 0.29159-1.6916 0.87291-2.2978zm8.7706 1.3125-0.0437-1.548h0.0437l4.0791 6.5457h1.077v-8.0249h-1.0312v4.6957l0.0437 1.548h-0.0437l-3.8999-6.2437h-1.2562v8.0249h1.0312z" fill="#fff" stroke="#fff" stroke-miterlimit="10" stroke-width=".26666" id="path3"/>
    <path style="font-size:22.6667px;font-family:'Product Sans';-inkscape-font-specification:'Product Sans, Normal';fill:#ffffff" d="m 62.525345,26.33198 -2.652004,7.321344 h 5.394674 L 62.616011,26.33198 Z M 57.584004,40 H 55.272 l 6.12001,-16.229357 h 2.357336 L 69.869355,40 H 67.557352 L 65.99335,35.60266 H 59.170673 Z M 73.496011,23.770643 V 40 H 71.410675 V 23.770643 Z m 7.049336,16.410691 q -1.360002,0 -2.26667,-0.838668 -0.884002,-0.838668 -0.906668,-2.33467 V 30.79732 h -1.949337 v -1.904003 h 1.949337 v -3.400005 h 2.085336 v 3.400005 h 2.720004 v 1.904003 h -2.720004 v 5.530675 q 0,1.110668 0.430667,1.518668 0.430668,0.385334 0.974669,0.385334 0.249333,0 0.476,-0.04533 0.249334,-0.068 0.453334,-0.158667 l 0.657335,1.858669 q -0.816002,0.294668 -1.904003,0.294668 z M 94.553369,35.67066 q 0,2.13067 -1.564002,3.422672 -1.586669,1.269335 -3.853339,1.269335 -2.017337,0 -3.558672,-1.178668 -1.541336,-1.178669 -2.13067,-3.218672 l 1.99467,-0.816001 q 0.204,0.725335 0.566667,1.314669 0.362667,0.589334 0.838668,1.020001 0.498667,0.408001 1.088002,0.657335 0.589334,0.226667 1.246668,0.226667 1.428002,0 2.33467,-0.725335 0.906668,-0.748001 0.906668,-1.972003 0,-1.020001 -0.748001,-1.745336 -0.702668,-0.702667 -2.629337,-1.360002 -1.949336,-0.702667 -2.425337,-0.952001 -2.584004,-1.314669 -2.584004,-3.876006 0,-1.790669 1.428002,-3.060004 1.450669,-1.269336 3.558672,-1.269336 1.85867,0 3.218672,0.952002 1.360002,0.929334 1.813336,2.33467 l -1.949336,0.816001 q -0.272001,-0.906668 -1.088002,-1.496002 -0.793335,-0.612001 -1.949336,-0.612001 -1.224002,0 -2.06267,0.680001 -0.838668,0.634668 -0.838668,1.654669 0,0.838668 0.657334,1.450669 0.725335,0.612001 3.150672,1.450669 2.47067,0.838668 3.513338,2.062669 1.065335,1.201336 1.065335,2.969338 z m 5.984011,4.510674 q -1.360006,0 -2.266674,-0.838668 -0.884001,-0.838668 -0.906668,-2.33467 V 30.79732 h -1.949336 v -1.904003 h 1.949336 v -3.400005 h 2.085336 v 3.400005 h 2.720006 v 1.904003 h -2.720006 v 5.530675 q 0,1.110668 0.430668,1.518668 0.430668,0.385334 0.974668,0.385334 0.24933,0 0.476,-0.04533 0.24933,-0.068 0.45333,-0.158667 l 0.65734,1.858669 q -0.816,0.294668 -1.904,0.294668 z m 2.87869,-5.734676 q 0,-2.561337 1.60933,-4.238673 1.632,-1.677335 4.10267,-1.677335 2.47068,0 4.08001,1.677335 1.632,1.677336 1.632,4.238673 0,2.584004 -1.632,4.238673 -1.60933,1.677336 -4.08001,1.677336 -2.47067,0 -4.10267,-1.677336 -1.60933,-1.677335 -1.60933,-4.238673 z m 2.08533,0 q 0,1.79067 1.04267,2.901338 1.04267,1.110668 2.584,1.110668 1.54134,0 2.58401,-1.110668 1.04267,-1.110668 1.04267,-2.901338 0,-1.768002 -1.04267,-2.878671 -1.06534,-1.133335 -2.58401,-1.133335 -1.51866,0 -2.584,1.133335 -1.04267,1.110669 -1.04267,2.878671 z M 118.60274,40 H 116.5174 V 28.893317 h 1.99467 v 1.813336 h 0.0907 q 0.31734,-0.884001 1.292,-1.496002 0.99734,-0.634668 1.94934,-0.634668 0.90667,0 1.54134,0.272 l -0.63467,2.017337 q -0.38534,-0.158667 -1.224,-0.158667 -1.17867,0 -2.06267,0.952001 -0.86134,0.952002 -0.86134,2.221337 z m 10.44935,0.362667 q -2.448,0 -4.03467,-1.677336 -1.58667,-1.677335 -1.58667,-4.238673 0,-2.53867 1.54133,-4.216006 1.54134,-1.700002 3.94401,-1.700002 2.47067,0 3.92134,1.609335 1.47334,1.586669 1.47334,4.46534 l -0.0227,0.226667 h -8.72668 q 0.0453,1.632003 1.088,2.629338 1.04267,0.997334 2.49334,0.997334 1.99467,0 3.128,-1.994669 l 1.85867,0.906668 q -0.748,1.405335 -2.08533,2.19867 -1.31467,0.793334 -2.99201,0.793334 z m -3.332,-7.253344 h 6.36934 q -0.0907,-1.156002 -0.952,-1.904003 -0.83867,-0.770668 -2.26667,-0.770668 -1.17867,0 -2.04001,0.725335 -0.83866,0.725334 -1.11066,1.949336 z" id="text9" fill="#fff" aria-label="AltStore"/>
  </g>
</svg>